<svg width="30" height="34" viewBox="0 0 30 34" fill="none" xmlns="http://www.w3.org/2000/svg">
<g clip-path="url(#clip0_1497_9108)">
<path fill-rule="evenodd" clip-rule="evenodd" d="M7.82477 7.66321L7.82324 7.66524L14.4679 15.5123V7.66524V-0.181828V-0.332703C12.2119 1.52404 9.86845 4.29212 7.82477 7.66372V7.66321Z" fill="white"/>
<path fill-rule="evenodd" clip-rule="evenodd" d="M22.1747 7.66321L22.1763 7.66524L15.5316 15.5123V7.66524V-0.181828V-0.332703C17.7876 1.52404 20.131 4.29212 22.1747 7.66372V7.66321Z" fill="white"/>
<path d="M15.0419 18.1362C15.6836 18.1362 16.2037 17.6205 16.2037 16.9845C16.2037 16.3485 15.6836 15.8329 15.0419 15.8329C14.4003 15.8329 13.8801 16.3485 13.8801 16.9845C13.8801 17.6205 14.4003 18.1362 15.0419 18.1362Z" fill="white"/>
<path d="M16.2855 15.4112L21.1933 9.61597L21.3437 9.74042L16.4364 15.5362L16.2855 15.4112Z" fill="white"/>
<path d="M16.4089 18.4557L21.3157 24.2509L21.1653 24.3759L16.2585 18.5807L16.4089 18.4557Z" fill="white"/>
<path d="M13.845 18.5964L8.93773 24.3917L8.78735 24.2672L13.6946 18.4714L13.845 18.5964Z" fill="white"/>
<path d="M13.0267 17.1095H5.39246V16.9149H13.0267V17.1095Z" fill="white"/>
<path d="M24.6918 17.1095H17.0576V16.9149H24.6918V17.1095Z" fill="white"/>
<path d="M14.9017 26.5049V18.9814H15.0978V26.5049H14.9017Z" fill="white"/>
<path d="M14.9017 14.9454V7.42139H15.0978V14.9454H14.9017Z" fill="white"/>
<path d="M13.8405 15.4229L13.6901 15.5474L8.78284 9.7521L8.9332 9.62714L13.8405 15.4229Z" fill="white"/>
<path fill-rule="evenodd" clip-rule="evenodd" d="M0.31191 16.4592L0.312927 16.4577C2.39268 13.1064 4.77164 10.3373 7.0678 8.43842L7.08507 8.45975L13.8582 16.4592H0.311401H0.31191Z" fill="white"/>
<path fill-rule="evenodd" clip-rule="evenodd" d="M29.688 16.4592L29.687 16.4577C27.6073 13.1064 25.2283 10.3373 22.9322 8.43842L22.9149 8.45975L16.1417 16.4592H29.6885H29.688Z" fill="white"/>
<path fill-rule="evenodd" clip-rule="evenodd" d="M29.688 17.4778L29.687 17.4793C27.6073 20.8306 25.2283 23.5997 22.9322 25.4986L22.9149 25.4772L16.1417 17.4778H29.6885H29.688Z" fill="white" stroke="white" stroke-width="0.003" stroke-miterlimit="2.61313"/>
<path fill-rule="evenodd" clip-rule="evenodd" d="M7.82477 26.3363L7.82324 26.3347L14.4679 18.4877V26.3347V34.1818V34.3332C12.2119 32.4765 9.86845 29.7084 7.82477 26.3368V26.3363Z" fill="white"/>
<path fill-rule="evenodd" clip-rule="evenodd" d="M22.1747 26.3363L22.1763 26.3347L15.5316 18.4877V26.3347V34.1818V34.3332C17.7876 32.4765 20.131 29.7084 22.1747 26.3368V26.3363Z" fill="white"/>
<path fill-rule="evenodd" clip-rule="evenodd" d="M0.31191 17.4778L0.312927 17.4793C2.39268 20.8306 4.77164 23.5997 7.0678 25.4986L7.08507 25.4772L13.8582 17.4778H0.311401H0.31191Z" fill="white"/>
</g>
<defs>
<clipPath id="clip0_1497_9108">
<rect width="30" height="34" fill="white"/>
</clipPath>
</defs>
</svg>
